<svg xmlns="http://www.w3.org/2000/svg" viewBox="0 0 382.92 147.35"><defs><style>.cls-1,.cls-5{fill:#f6db95;}.cls-2{fill:none;stroke:#f6db95;}.cls-2,.cls-4,.cls-5{stroke-miterlimit:10;stroke-width:8px;}.cls-3{fill:#515796;}.cls-4{fill:#fff;}.cls-4,.cls-5{stroke:#515796;}</style></defs><title>Asset 1</title><g id="Layer_2" data-name="Layer 2"><g id="Layer_1-2" data-name="Layer 1"><path class="cls-1" d="M193.54,115.3c2.93,4.66.82,8.47-4.68,8.47H68.64c-5.5,0-12.18-3.94-14.85-8.75L5.11,27.38c-2.67-4.81-.36-8.75,5.14-8.75H122.8c5.5,0,12.39,3.82,15.32,8.47Z"/><path class="cls-2" d="M193.54,115.3c2.93,4.66.82,8.47-4.68,8.47H68.64c-5.5,0-12.18-3.94-14.85-8.75L5.11,27.38c-2.67-4.81-.36-8.75,5.14-8.75H122.8c5.5,0,12.39,3.82,15.32,8.47Z"/><path class="cls-3" d="M314.13,138.48c-2.55,4.88-9.14,8.87-14.64,8.87H108.36c-5.5,0-7.56-3.79-4.57-8.41L188,8.4c3-4.62,9.92-8.4,15.42-8.4H376.53c5.5,0,7.92,4,5.37,8.86Z"/><polygon class="cls-4" points="197.96 54.9 163.27 114.98 128.58 54.9 197.96 54.9"/><polygon class="cls-5" points="193.69 57.35 176.12 87.78 158.56 57.35 193.69 57.35"/></g></g></svg>